<?xml version="1.0" encoding="utf-8"?>
<!-- Generator: Adobe Illustrator 28.0.0, SVG Export Plug-In . SVG Version: 6.00 Build 0)  -->
<svg version="1.1" id="Layer_1" xmlns="http://www.w3.org/2000/svg" xmlns:xlink="http://www.w3.org/1999/xlink" x="0px" y="0px"
	 viewBox="0 0 65 64" style="enable-background:new 0 0 65 64;" xml:space="preserve">
<style type="text/css">
	.st0{fill:#0B3F4E;fill-opacity:0.16;}
	.st1{fill:none;stroke:url(#SVGID_1_);stroke-width:2.4;stroke-linecap:round;stroke-linejoin:round;}
</style>
<circle class="st0" cx="24.7" cy="24" r="24"/>
<radialGradient id="SVGID_1_" cx="-672.1859" cy="304.0393" r="0.7792" gradientTransform="matrix(59.2834 59.489 213.7789 -213.04 -25133.7227 104774.6406)" gradientUnits="userSpaceOnUse">
	<stop  offset="0" style="stop-color:#0B3F4E"/>
	<stop  offset="0.5" style="stop-color:#0085AB"/>
	<stop  offset="1" style="stop-color:#0B3F4E"/>
</radialGradient>
<path class="st1" d="M27.3,26.7H14.6c-4,0-6.5,4.2-4.8,7.7l9.3,18.7c0.9,1.8,2.8,2.9,4.8,2.9h10.7c0.4,0,0.9-0.1,1.3-0.2l10-2.5
	 M27.3,26.7V13.3c0-2.9,2.4-5.3,5.3-5.3h0.3c1.3,0,2.4,1.1,2.4,2.4c0,1.9,0.6,3.8,1.6,5.4l9,13.6v24 M27.3,26.7h5.3 M46,53.3h5.3
	c2.9,0,5.3-2.4,5.3-5.3V32c0-2.9-2.4-5.3-5.3-5.3h-6.7"/>
</svg>
